<mxfile host="Electron" agent="Mozilla/5.0 (Windows NT 10.0; Win64; x64) AppleWebKit/537.36 (KHTML, like Gecko) draw.io/26.0.16 Chrome/132.0.6834.196 Electron/34.2.0 Safari/537.36" version="26.0.16">
  <diagram name="Seite-1" id="8K_qrTYEPU5q2x3TgUBe">
    <mxGraphModel dx="2026" dy="1171" grid="1" gridSize="10" guides="1" tooltips="1" connect="1" arrows="1" fold="1" page="1" pageScale="1" pageWidth="827" pageHeight="1169" math="0" shadow="0">
      <root>
        <mxCell id="0" />
        <mxCell id="1" parent="0" />
        <mxCell id="_l1rCPPvKuIJKqJEu8NT-1" value="&lt;p style=&quot;margin:0px;margin-top:4px;text-align:center;&quot;&gt;&lt;i&gt;&amp;lt;&amp;lt;Interface&amp;gt;&amp;gt;&lt;/i&gt;&lt;br&gt;&lt;b&gt;&lt;i&gt;UserInterface&lt;/i&gt;&lt;/b&gt;&lt;/p&gt;&lt;hr size=&quot;1&quot; style=&quot;border-style:solid;&quot;&gt;&lt;div&gt;&amp;nbsp;+ userAccountManager(): boolean&lt;/div&gt;&lt;div&gt;&lt;span style=&quot;background-color: initial;&quot;&gt;&amp;nbsp;+ authManager(): boolean&lt;/span&gt;&lt;/div&gt;&lt;div&gt;&amp;nbsp;+ transactionManager(): void&lt;span style=&quot;background-color: initial;&quot;&gt;&lt;br&gt;&lt;/span&gt;&lt;/div&gt;&lt;div&gt;&lt;span style=&quot;background-color: initial;&quot;&gt;&amp;nbsp;+ settings(): void&lt;/span&gt;&lt;br&gt;&lt;/div&gt;&lt;div&gt;&lt;span style=&quot;background-color: initial;&quot;&gt;&amp;nbsp;+ dataStorage(): void&lt;/span&gt;&lt;/div&gt;&lt;div&gt;&amp;nbsp;+ expenseSummary(): void&lt;/div&gt;&lt;div&gt;&amp;nbsp;+ transactionHistory() void&lt;/div&gt;&lt;div&gt;&amp;nbsp;+ reportSummary(): void&lt;/div&gt;&lt;div&gt;&lt;span style=&quot;background-color: initial;&quot;&gt;&amp;nbsp;+ run(): void&lt;/span&gt;&lt;/div&gt;" style="verticalAlign=top;align=left;overflow=fill;html=1;whiteSpace=wrap;" parent="1" vertex="1">
          <mxGeometry x="920" y="923.5" width="207.5" height="183" as="geometry" />
        </mxCell>
        <mxCell id="_l1rCPPvKuIJKqJEu8NT-87" value="ExpenseSummary" style="swimlane;fontStyle=1;align=center;verticalAlign=top;childLayout=stackLayout;horizontal=1;startSize=26;horizontalStack=0;resizeParent=1;resizeParentMax=0;resizeLast=0;collapsible=1;marginBottom=0;whiteSpace=wrap;html=1;" parent="1" vertex="1">
          <mxGeometry x="1370" y="910" width="280" height="210" as="geometry" />
        </mxCell>
        <mxCell id="tSsszTB-Zw05nYNQHJDE-29" value="- totalExpenses: double" style="text;strokeColor=none;fillColor=none;align=left;verticalAlign=top;spacingLeft=4;spacingRight=4;overflow=hidden;rotatable=0;points=[[0,0.5],[1,0.5]];portConstraint=eastwest;whiteSpace=wrap;html=1;" parent="_l1rCPPvKuIJKqJEu8NT-87" vertex="1">
          <mxGeometry y="26" width="280" height="26" as="geometry" />
        </mxCell>
        <mxCell id="mt1uuPFszQuOOz2QInVY-1" value="- highestCategory: string" style="text;strokeColor=none;fillColor=none;align=left;verticalAlign=top;spacingLeft=4;spacingRight=4;overflow=hidden;rotatable=0;points=[[0,0.5],[1,0.5]];portConstraint=eastwest;whiteSpace=wrap;html=1;" parent="_l1rCPPvKuIJKqJEu8NT-87" vertex="1">
          <mxGeometry y="52" width="280" height="26" as="geometry" />
        </mxCell>
        <mxCell id="mt1uuPFszQuOOz2QInVY-2" value="- expensesPercentage: Map&amp;lt;string, string&amp;gt;" style="text;strokeColor=none;fillColor=none;align=left;verticalAlign=top;spacingLeft=4;spacingRight=4;overflow=hidden;rotatable=0;points=[[0,0.5],[1,0.5]];portConstraint=eastwest;whiteSpace=wrap;html=1;" parent="_l1rCPPvKuIJKqJEu8NT-87" vertex="1">
          <mxGeometry y="78" width="280" height="26" as="geometry" />
        </mxCell>
        <mxCell id="mt1uuPFszQuOOz2QInVY-3" value="- expensesByCategory: Map &amp;lt;string, string&amp;gt;" style="text;strokeColor=none;fillColor=none;align=left;verticalAlign=top;spacingLeft=4;spacingRight=4;overflow=hidden;rotatable=0;points=[[0,0.5],[1,0.5]];portConstraint=eastwest;whiteSpace=wrap;html=1;" parent="_l1rCPPvKuIJKqJEu8NT-87" vertex="1">
          <mxGeometry y="104" width="280" height="26" as="geometry" />
        </mxCell>
        <mxCell id="_l1rCPPvKuIJKqJEu8NT-89" value="" style="line;strokeWidth=1;fillColor=none;align=left;verticalAlign=middle;spacingTop=-1;spacingLeft=3;spacingRight=3;rotatable=0;labelPosition=right;points=[];portConstraint=eastwest;strokeColor=inherit;" parent="_l1rCPPvKuIJKqJEu8NT-87" vertex="1">
          <mxGeometry y="130" width="280" height="8" as="geometry" />
        </mxCell>
        <mxCell id="_l1rCPPvKuIJKqJEu8NT-90" value="&lt;div&gt;&lt;span style=&quot;text-align: center; text-wrap: nowrap; background-color: rgb(24, 20, 29);&quot;&gt;&lt;font style=&quot;font-size: 12px;&quot;&gt;+ ExpenseSummary()&lt;/font&gt;&lt;/span&gt;&lt;/div&gt;&lt;div&gt;&lt;span style=&quot;text-align: center; text-wrap: nowrap; background-color: rgb(24, 20, 29);&quot;&gt;&lt;font style=&quot;font-size: 12px;&quot;&gt;+ categorizeExpenses(): void&lt;/font&gt;&lt;/span&gt;&lt;/div&gt;&lt;span style=&quot;text-align: center; text-wrap: nowrap; background-color: rgb(24, 20, 29);&quot;&gt;&lt;font style=&quot;font-size: 12px;&quot;&gt;+ getExpenseSummary(): void&lt;/font&gt;&lt;/span&gt;&lt;div&gt;&lt;span style=&quot;text-align: center; text-wrap: nowrap; background-color: rgb(24, 20, 29);&quot;&gt;&lt;font style=&quot;font-size: 12px;&quot;&gt;+ expensesCalculator(): void&lt;/font&gt;&lt;/span&gt;&lt;/div&gt;" style="text;strokeColor=none;fillColor=none;align=left;verticalAlign=top;spacingLeft=4;spacingRight=4;overflow=hidden;rotatable=0;points=[[0,0.5],[1,0.5]];portConstraint=eastwest;whiteSpace=wrap;html=1;" parent="_l1rCPPvKuIJKqJEu8NT-87" vertex="1">
          <mxGeometry y="138" width="280" height="72" as="geometry" />
        </mxCell>
        <mxCell id="_l1rCPPvKuIJKqJEu8NT-95" value="TransactionHistory" style="swimlane;fontStyle=1;align=center;verticalAlign=top;childLayout=stackLayout;horizontal=1;startSize=26;horizontalStack=0;resizeParent=1;resizeParentMax=0;resizeLast=0;collapsible=1;marginBottom=0;whiteSpace=wrap;html=1;" parent="1" vertex="1">
          <mxGeometry x="1330" y="698" width="190" height="70" as="geometry" />
        </mxCell>
        <mxCell id="_l1rCPPvKuIJKqJEu8NT-98" value="&lt;div&gt;+ TransactionHistory()&lt;/div&gt;+ getTransactionHistory(): void" style="text;strokeColor=none;fillColor=none;align=left;verticalAlign=top;spacingLeft=4;spacingRight=4;overflow=hidden;rotatable=0;points=[[0,0.5],[1,0.5]];portConstraint=eastwest;whiteSpace=wrap;html=1;" parent="_l1rCPPvKuIJKqJEu8NT-95" vertex="1">
          <mxGeometry y="26" width="190" height="44" as="geometry" />
        </mxCell>
        <mxCell id="_l1rCPPvKuIJKqJEu8NT-99" value="ReportSummary" style="swimlane;fontStyle=1;align=center;verticalAlign=top;childLayout=stackLayout;horizontal=1;startSize=26;horizontalStack=0;resizeParent=1;resizeParentMax=0;resizeLast=0;collapsible=1;marginBottom=0;whiteSpace=wrap;html=1;" parent="1" vertex="1">
          <mxGeometry x="1050" y="450" width="250" height="364" as="geometry" />
        </mxCell>
        <mxCell id="tSsszTB-Zw05nYNQHJDE-30" value="- totalIncome: double" style="text;strokeColor=none;fillColor=none;align=left;verticalAlign=top;spacingLeft=4;spacingRight=4;overflow=hidden;rotatable=0;points=[[0,0.5],[1,0.5]];portConstraint=eastwest;whiteSpace=wrap;html=1;" parent="_l1rCPPvKuIJKqJEu8NT-99" vertex="1">
          <mxGeometry y="26" width="250" height="26" as="geometry" />
        </mxCell>
        <mxCell id="tSsszTB-Zw05nYNQHJDE-31" value="- totalExpenses: double" style="text;strokeColor=none;fillColor=none;align=left;verticalAlign=top;spacingLeft=4;spacingRight=4;overflow=hidden;rotatable=0;points=[[0,0.5],[1,0.5]];portConstraint=eastwest;whiteSpace=wrap;html=1;" parent="_l1rCPPvKuIJKqJEu8NT-99" vertex="1">
          <mxGeometry y="52" width="250" height="26" as="geometry" />
        </mxCell>
        <mxCell id="1YyrAin1zv4BjqRYYmEW-5" value="- totalBalance: double" style="text;strokeColor=none;fillColor=none;align=left;verticalAlign=top;spacingLeft=4;spacingRight=4;overflow=hidden;rotatable=0;points=[[0,0.5],[1,0.5]];portConstraint=eastwest;whiteSpace=wrap;html=1;" parent="_l1rCPPvKuIJKqJEu8NT-99" vertex="1">
          <mxGeometry y="78" width="250" height="26" as="geometry" />
        </mxCell>
        <mxCell id="1YyrAin1zv4BjqRYYmEW-2" value="- highestCategory: string" style="text;strokeColor=none;fillColor=none;align=left;verticalAlign=top;spacingLeft=4;spacingRight=4;overflow=hidden;rotatable=0;points=[[0,0.5],[1,0.5]];portConstraint=eastwest;whiteSpace=wrap;html=1;" parent="_l1rCPPvKuIJKqJEu8NT-99" vertex="1">
          <mxGeometry y="104" width="250" height="26" as="geometry" />
        </mxCell>
        <mxCell id="veD-F8gHTbL__xjpdQbw-1" value="- highestSource: string" style="text;strokeColor=none;fillColor=none;align=left;verticalAlign=top;spacingLeft=4;spacingRight=4;overflow=hidden;rotatable=0;points=[[0,0.5],[1,0.5]];portConstraint=eastwest;whiteSpace=wrap;html=1;" parent="_l1rCPPvKuIJKqJEu8NT-99" vertex="1">
          <mxGeometry y="130" width="250" height="26" as="geometry" />
        </mxCell>
        <mxCell id="1YyrAin1zv4BjqRYYmEW-3" value="- expensesPercentage: Map&amp;lt;string, string&amp;gt;" style="text;strokeColor=none;fillColor=none;align=left;verticalAlign=top;spacingLeft=4;spacingRight=4;overflow=hidden;rotatable=0;points=[[0,0.5],[1,0.5]];portConstraint=eastwest;whiteSpace=wrap;html=1;" parent="_l1rCPPvKuIJKqJEu8NT-99" vertex="1">
          <mxGeometry y="156" width="250" height="26" as="geometry" />
        </mxCell>
        <mxCell id="veD-F8gHTbL__xjpdQbw-3" value="- incomePercentage: Map&amp;lt;string, string&amp;gt;" style="text;strokeColor=none;fillColor=none;align=left;verticalAlign=top;spacingLeft=4;spacingRight=4;overflow=hidden;rotatable=0;points=[[0,0.5],[1,0.5]];portConstraint=eastwest;whiteSpace=wrap;html=1;" parent="_l1rCPPvKuIJKqJEu8NT-99" vertex="1">
          <mxGeometry y="182" width="250" height="26" as="geometry" />
        </mxCell>
        <mxCell id="1YyrAin1zv4BjqRYYmEW-1" value="- expensesByCategory: Map &amp;lt;string, string&amp;gt;" style="text;strokeColor=none;fillColor=none;align=left;verticalAlign=top;spacingLeft=4;spacingRight=4;overflow=hidden;rotatable=0;points=[[0,0.5],[1,0.5]];portConstraint=eastwest;whiteSpace=wrap;html=1;" parent="_l1rCPPvKuIJKqJEu8NT-99" vertex="1">
          <mxGeometry y="208" width="250" height="26" as="geometry" />
        </mxCell>
        <mxCell id="veD-F8gHTbL__xjpdQbw-4" value="- incomeBySource: Map &amp;lt;string, string&amp;gt;" style="text;strokeColor=none;fillColor=none;align=left;verticalAlign=top;spacingLeft=4;spacingRight=4;overflow=hidden;rotatable=0;points=[[0,0.5],[1,0.5]];portConstraint=eastwest;whiteSpace=wrap;html=1;" parent="_l1rCPPvKuIJKqJEu8NT-99" vertex="1">
          <mxGeometry y="234" width="250" height="26" as="geometry" />
        </mxCell>
        <mxCell id="_l1rCPPvKuIJKqJEu8NT-101" value="" style="line;strokeWidth=1;fillColor=none;align=left;verticalAlign=middle;spacingTop=-1;spacingLeft=3;spacingRight=3;rotatable=0;labelPosition=right;points=[];portConstraint=eastwest;strokeColor=inherit;" parent="_l1rCPPvKuIJKqJEu8NT-99" vertex="1">
          <mxGeometry y="260" width="250" height="8" as="geometry" />
        </mxCell>
        <mxCell id="_l1rCPPvKuIJKqJEu8NT-102" value="&lt;div&gt;&lt;span style=&quot;text-align: center; text-wrap: nowrap; background-color: rgb(24, 20, 29);&quot;&gt;&lt;font style=&quot;font-size: 12px;&quot;&gt;+ ReportSummary()&lt;/font&gt;&lt;/span&gt;&lt;/div&gt;&lt;div&gt;&lt;span style=&quot;text-align: center; text-wrap: nowrap; background-color: rgb(24, 20, 29);&quot;&gt;&lt;font style=&quot;font-size: 12px;&quot;&gt;+ generateReportSummary(): void&lt;/font&gt;&lt;/span&gt;&lt;/div&gt;&lt;div&gt;&lt;span style=&quot;text-align: center; text-wrap: nowrap; background-color: rgb(24, 20, 29);&quot;&gt;&lt;font style=&quot;font-size: 12px;&quot;&gt;+ getTotalBalance(): void&lt;/font&gt;&lt;/span&gt;&lt;/div&gt;&lt;div&gt;&lt;span style=&quot;text-align: center; text-wrap: nowrap; background-color: rgb(24, 20, 29);&quot;&gt;&lt;font style=&quot;font-size: 12px;&quot;&gt;+ categorizeExpenses(): void&lt;/font&gt;&lt;/span&gt;&lt;/div&gt;&lt;div&gt;&lt;span style=&quot;text-align: center; text-wrap: nowrap; background-color: rgb(24, 20, 29);&quot;&gt;+ categorizeIncome(): void&lt;/span&gt;&lt;span style=&quot;text-align: center; text-wrap: nowrap; background-color: rgb(24, 20, 29);&quot;&gt;&lt;font style=&quot;font-size: 12px;&quot;&gt;&lt;br&gt;&lt;/font&gt;&lt;/span&gt;&lt;/div&gt;&lt;div&gt;&lt;span style=&quot;text-align: center; text-wrap: nowrap; background-color: rgb(24, 20, 29);&quot;&gt;+ exportToCSV(): void&lt;/span&gt;&lt;/div&gt;" style="text;strokeColor=none;fillColor=none;align=left;verticalAlign=top;spacingLeft=4;spacingRight=4;overflow=hidden;rotatable=0;points=[[0,0.5],[1,0.5]];portConstraint=eastwest;whiteSpace=wrap;html=1;" parent="_l1rCPPvKuIJKqJEu8NT-99" vertex="1">
          <mxGeometry y="268" width="250" height="96" as="geometry" />
        </mxCell>
        <mxCell id="z031N11Bq6jgAGXRoNra-11" value="Settings" style="swimlane;fontStyle=1;align=center;verticalAlign=top;childLayout=stackLayout;horizontal=1;startSize=26;horizontalStack=0;resizeParent=1;resizeParentMax=0;resizeLast=0;collapsible=1;marginBottom=0;whiteSpace=wrap;html=1;" parent="1" vertex="1">
          <mxGeometry x="390" y="470" width="210" height="170" as="geometry" />
        </mxCell>
        <mxCell id="z031N11Bq6jgAGXRoNra-12" value="- currencies[]: Map&amp;lt;string, string&amp;gt;" style="text;strokeColor=none;fillColor=none;align=left;verticalAlign=top;spacingLeft=4;spacingRight=4;overflow=hidden;rotatable=0;points=[[0,0.5],[1,0.5]];portConstraint=eastwest;whiteSpace=wrap;html=1;" parent="z031N11Bq6jgAGXRoNra-11" vertex="1">
          <mxGeometry y="26" width="210" height="26" as="geometry" />
        </mxCell>
        <mxCell id="tSsszTB-Zw05nYNQHJDE-9" value="- preferredCurrency: string" style="text;strokeColor=none;fillColor=none;align=left;verticalAlign=top;spacingLeft=4;spacingRight=4;overflow=hidden;rotatable=0;points=[[0,0.5],[1,0.5]];portConstraint=eastwest;whiteSpace=wrap;html=1;" parent="z031N11Bq6jgAGXRoNra-11" vertex="1">
          <mxGeometry y="52" width="210" height="26" as="geometry" />
        </mxCell>
        <mxCell id="z031N11Bq6jgAGXRoNra-13" value="" style="line;strokeWidth=1;fillColor=none;align=left;verticalAlign=middle;spacingTop=-1;spacingLeft=3;spacingRight=3;rotatable=0;labelPosition=right;points=[];portConstraint=eastwest;strokeColor=inherit;" parent="z031N11Bq6jgAGXRoNra-11" vertex="1">
          <mxGeometry y="78" width="210" height="8" as="geometry" />
        </mxCell>
        <mxCell id="z031N11Bq6jgAGXRoNra-14" value="&lt;p style=&quot;margin: 0px 0px 0px 4px;&quot;&gt;+ Settings()&lt;/p&gt;&lt;p style=&quot;margin: 0px 0px 0px 4px;&quot;&gt;+ setAccountCurrency(): void&lt;/p&gt;&lt;p style=&quot;margin: 0px 0px 0px 4px;&quot;&gt;+ setCurrency(): void&lt;/p&gt;&lt;p style=&quot;margin: 0px 0px 0px 4px;&quot;&gt;+ getMethods(&lt;span style=&quot;background-color: initial;&quot;&gt;): void&lt;/span&gt;&lt;/p&gt;&lt;p style=&quot;margin: 0px 0px 0px 4px;&quot;&gt;&lt;span style=&quot;background-color: initial;&quot;&gt;+ setMethods(): attributes&lt;/span&gt;&lt;/p&gt;" style="text;strokeColor=none;fillColor=none;align=left;verticalAlign=top;spacingLeft=4;spacingRight=4;overflow=hidden;rotatable=0;points=[[0,0.5],[1,0.5]];portConstraint=eastwest;whiteSpace=wrap;html=1;" parent="z031N11Bq6jgAGXRoNra-11" vertex="1">
          <mxGeometry y="86" width="210" height="84" as="geometry" />
        </mxCell>
        <mxCell id="z031N11Bq6jgAGXRoNra-19" value="&lt;div&gt;&lt;span style=&quot;background-color: initial;&quot;&gt;TransactionManager&lt;/span&gt;&lt;br&gt;&lt;/div&gt;" style="swimlane;fontStyle=1;align=center;verticalAlign=top;childLayout=stackLayout;horizontal=1;startSize=30;horizontalStack=0;resizeParent=1;resizeParentMax=0;resizeLast=0;collapsible=1;marginBottom=0;whiteSpace=wrap;html=1;" parent="1" vertex="1">
          <mxGeometry x="840" y="538" width="190" height="256" as="geometry" />
        </mxCell>
        <mxCell id="z031N11Bq6jgAGXRoNra-20" value="&lt;div&gt;&lt;span style=&quot;text-align: center; text-wrap: nowrap; background-color: rgb(24, 20, 29);&quot;&gt;- transactions: List&amp;lt;Transaction&amp;gt;&lt;/span&gt;&lt;/div&gt;&lt;div&gt;&lt;span style=&quot;text-align: center; text-wrap: nowrap; background-color: rgb(24, 20, 29);&quot;&gt;&lt;br&gt;&lt;/span&gt;&lt;/div&gt;&lt;div&gt;&lt;/div&gt;" style="text;strokeColor=none;fillColor=none;align=left;verticalAlign=top;spacingLeft=4;spacingRight=4;overflow=hidden;rotatable=0;points=[[0,0.5],[1,0.5]];portConstraint=eastwest;whiteSpace=wrap;html=1;" parent="z031N11Bq6jgAGXRoNra-19" vertex="1">
          <mxGeometry y="30" width="190" height="26" as="geometry" />
        </mxCell>
        <mxCell id="-g-TPnmpKA_GPxpFTXeJ-6" value="- database: Database" style="text;strokeColor=none;fillColor=none;align=left;verticalAlign=top;spacingLeft=4;spacingRight=4;overflow=hidden;rotatable=0;points=[[0,0.5],[1,0.5]];portConstraint=eastwest;whiteSpace=wrap;html=1;" parent="z031N11Bq6jgAGXRoNra-19" vertex="1">
          <mxGeometry y="56" width="190" height="26" as="geometry" />
        </mxCell>
        <mxCell id="a6m1evGmi5l3W6-6Lu3d-1" value="- authManager: AuthManager" style="text;strokeColor=none;fillColor=none;align=left;verticalAlign=top;spacingLeft=4;spacingRight=4;overflow=hidden;rotatable=0;points=[[0,0.5],[1,0.5]];portConstraint=eastwest;whiteSpace=wrap;html=1;" parent="z031N11Bq6jgAGXRoNra-19" vertex="1">
          <mxGeometry y="82" width="190" height="26" as="geometry" />
        </mxCell>
        <mxCell id="z031N11Bq6jgAGXRoNra-24" value="" style="line;strokeWidth=1;fillColor=none;align=left;verticalAlign=middle;spacingTop=-1;spacingLeft=3;spacingRight=3;rotatable=0;labelPosition=right;points=[];portConstraint=eastwest;strokeColor=inherit;" parent="z031N11Bq6jgAGXRoNra-19" vertex="1">
          <mxGeometry y="108" width="190" height="8" as="geometry" />
        </mxCell>
        <mxCell id="z031N11Bq6jgAGXRoNra-25" value="&lt;p style=&quot;margin: 0px 0px 0px 4px;&quot;&gt;+ TransacionManager()&lt;/p&gt;&lt;p style=&quot;margin: 0px 0px 0px 4px;&quot;&gt;+ addTransaction(&lt;span style=&quot;background-color: initial;&quot;&gt;): void&lt;/span&gt;&lt;/p&gt;&lt;p style=&quot;margin: 0px 0px 0px 4px;&quot;&gt;&lt;span style=&quot;background-color: initial;&quot;&gt;+ editTransaction(): boolean&lt;/span&gt;&lt;/p&gt;&lt;div&gt;&lt;p style=&quot;margin: 0px 0px 0px 4px;&quot;&gt;+ deleteTransaction(): void&lt;/p&gt;&lt;p style=&quot;margin: 0px 0px 0px 4px;&quot;&gt;&lt;span style=&quot;background-color: rgb(24, 20, 29); text-align: center; text-wrap: nowrap;&quot;&gt;+ verifyTransaction(): boolean&lt;/span&gt;&lt;/p&gt;&lt;p style=&quot;margin: 0px 0px 0px 4px;&quot;&gt;&lt;span style=&quot;background-color: rgb(24, 20, 29); text-align: center; text-wrap: nowrap;&quot;&gt;+ getTransaction(): Transaction&lt;/span&gt;&lt;/p&gt;&lt;p style=&quot;margin: 0px 0px 0px 4px;&quot;&gt;+ getTotalBalance(): void&lt;/p&gt;&lt;p style=&quot;margin: 0px 0px 0px 4px;&quot;&gt;&lt;span style=&quot;background-color: rgb(24, 20, 29); font-size: 11px; text-align: center; text-wrap: nowrap;&quot;&gt;+ getRecentTransactions(): void&lt;/span&gt;&lt;/p&gt;&lt;p style=&quot;margin: 0px 0px 0px 4px;&quot;&gt;&lt;span style=&quot;background-color: rgb(24, 20, 29); font-size: 11px; text-align: center; text-wrap: nowrap;&quot;&gt;+ fetchTransactions(): void&lt;/span&gt;&lt;/p&gt;&lt;/div&gt;" style="text;strokeColor=none;fillColor=none;align=left;verticalAlign=top;spacingLeft=4;spacingRight=4;overflow=hidden;rotatable=0;points=[[0,0.5],[1,0.5]];portConstraint=eastwest;whiteSpace=wrap;html=1;" parent="z031N11Bq6jgAGXRoNra-19" vertex="1">
          <mxGeometry y="116" width="190" height="140" as="geometry" />
        </mxCell>
        <mxCell id="C8-yYndTRifIOpUNYZ5G-10" value="UserAccountManager" style="swimlane;fontStyle=1;align=center;verticalAlign=top;childLayout=stackLayout;horizontal=1;startSize=26;horizontalStack=0;resizeParent=1;resizeParentMax=0;resizeLast=0;collapsible=1;marginBottom=0;whiteSpace=wrap;html=1;" parent="1" vertex="1">
          <mxGeometry x="10" y="191" width="240" height="240" as="geometry" />
        </mxCell>
        <mxCell id="2iU1RvOuaXEo3gu4XbIr-5" value="&lt;div&gt;&lt;span style=&quot;text-align: center; text-wrap: nowrap; background-color: rgb(24, 20, 29);&quot;&gt;- userAccounts: List&amp;lt;UserAccount&amp;gt;&lt;/span&gt;&lt;/div&gt;&lt;div&gt;&lt;span style=&quot;text-align: center; text-wrap: nowrap; background-color: rgb(24, 20, 29);&quot;&gt;&lt;br&gt;&lt;/span&gt;&lt;/div&gt;&lt;div&gt;&lt;/div&gt;" style="text;strokeColor=none;fillColor=none;align=left;verticalAlign=top;spacingLeft=4;spacingRight=4;overflow=hidden;rotatable=0;points=[[0,0.5],[1,0.5]];portConstraint=eastwest;whiteSpace=wrap;html=1;" parent="C8-yYndTRifIOpUNYZ5G-10" vertex="1">
          <mxGeometry y="26" width="240" height="26" as="geometry" />
        </mxCell>
        <mxCell id="2iU1RvOuaXEo3gu4XbIr-6" value="- database: Database" style="text;strokeColor=none;fillColor=none;align=left;verticalAlign=top;spacingLeft=4;spacingRight=4;overflow=hidden;rotatable=0;points=[[0,0.5],[1,0.5]];portConstraint=eastwest;whiteSpace=wrap;html=1;" parent="C8-yYndTRifIOpUNYZ5G-10" vertex="1">
          <mxGeometry y="52" width="240" height="26" as="geometry" />
        </mxCell>
        <mxCell id="C8-yYndTRifIOpUNYZ5G-12" value="" style="line;strokeWidth=1;fillColor=none;align=left;verticalAlign=middle;spacingTop=-1;spacingLeft=3;spacingRight=3;rotatable=0;labelPosition=right;points=[];portConstraint=eastwest;strokeColor=inherit;" parent="C8-yYndTRifIOpUNYZ5G-10" vertex="1">
          <mxGeometry y="78" width="240" height="8" as="geometry" />
        </mxCell>
        <mxCell id="C8-yYndTRifIOpUNYZ5G-13" value="&lt;p style=&quot;margin: 0px 0px 0px 4px;&quot;&gt;+ UserAccountManager()&lt;/p&gt;&lt;p style=&quot;margin: 0px 0px 0px 4px;&quot;&gt;+ addAccount(&lt;span style=&quot;background-color: initial;&quot;&gt;): void&lt;/span&gt;&lt;/p&gt;&lt;p style=&quot;margin: 0px 0px 0px 4px;&quot;&gt;&lt;span style=&quot;background-color: initial;&quot;&gt;+ editUserAccount(): boolean&lt;/span&gt;&lt;/p&gt;&lt;p style=&quot;margin: 0px 0px 0px 4px;&quot;&gt;&lt;span style=&quot;background-color: initial;&quot;&gt;+ editUserAccountPassword(): boolean&lt;/span&gt;&lt;/p&gt;&lt;div&gt;&lt;p style=&quot;margin: 0px 0px 0px 4px;&quot;&gt;+ deleteUserAccount(): void&lt;/p&gt;&lt;p style=&quot;margin: 0px 0px 0px 4px;&quot;&gt;&lt;span style=&quot;background-color: rgb(24, 20, 29); text-align: center; text-wrap: nowrap;&quot;&gt;+ verifyUserAccount(): boolean&lt;/span&gt;&lt;/p&gt;&lt;p style=&quot;margin: 0px 0px 0px 4px;&quot;&gt;&lt;span style=&quot;background-color: rgb(24, 20, 29); text-align: center; text-wrap: nowrap;&quot;&gt;+ verifyAccountByUsername(): boolean&lt;/span&gt;&lt;/p&gt;&lt;p style=&quot;margin: 0px 0px 0px 4px;&quot;&gt;&lt;span style=&quot;background-color: rgb(24, 20, 29); text-align: center; text-wrap: nowrap;&quot;&gt;+ getUserAccount():&amp;nbsp;&lt;/span&gt;&lt;span style=&quot;background-color: rgb(24, 20, 29); text-align: center; text-wrap: nowrap;&quot;&gt;UserAccount&lt;/span&gt;&lt;/p&gt;&lt;p style=&quot;margin: 0px 0px 0px 4px;&quot;&gt;&lt;span style=&quot;background-color: rgb(24, 20, 29); text-align: center; text-wrap: nowrap;&quot;&gt;+ getUserAccounts():&amp;nbsp;&lt;/span&gt;&lt;span style=&quot;background-color: rgb(24, 20, 29); text-align: center; text-wrap: nowrap;&quot;&gt;List&amp;lt;UserAccount&amp;gt;&lt;/span&gt;&lt;/p&gt;&lt;p style=&quot;margin: 0px 0px 0px 4px;&quot;&gt;&lt;span style=&quot;background-color: rgb(24, 20, 29); text-align: center; text-wrap: nowrap;&quot;&gt;+ fetchUserAccounts(): void&lt;/span&gt;&lt;/p&gt;&lt;p style=&quot;margin: 0px 0px 0px 4px;&quot;&gt;&lt;span style=&quot;background-color: rgb(24, 20, 29); text-align: center; text-wrap: nowrap;&quot;&gt;&lt;br&gt;&lt;/span&gt;&lt;/p&gt;&lt;/div&gt;" style="text;strokeColor=none;fillColor=none;align=left;verticalAlign=top;spacingLeft=4;spacingRight=4;overflow=hidden;rotatable=0;points=[[0,0.5],[1,0.5]];portConstraint=eastwest;whiteSpace=wrap;html=1;" parent="C8-yYndTRifIOpUNYZ5G-10" vertex="1">
          <mxGeometry y="86" width="240" height="154" as="geometry" />
        </mxCell>
        <mxCell id="C8-yYndTRifIOpUNYZ5G-30" value="Database" style="swimlane;fontStyle=1;align=center;verticalAlign=top;childLayout=stackLayout;horizontal=1;startSize=26;horizontalStack=0;resizeParent=1;resizeParentMax=0;resizeLast=0;collapsible=1;marginBottom=0;whiteSpace=wrap;html=1;" parent="1" vertex="1">
          <mxGeometry x="590" y="10" width="240" height="370" as="geometry" />
        </mxCell>
        <mxCell id="C8-yYndTRifIOpUNYZ5G-35" value="- instance: Database" style="text;strokeColor=none;fillColor=none;align=left;verticalAlign=top;spacingLeft=4;spacingRight=4;overflow=hidden;rotatable=0;points=[[0,0.5],[1,0.5]];portConstraint=eastwest;whiteSpace=wrap;html=1;" parent="C8-yYndTRifIOpUNYZ5G-30" vertex="1">
          <mxGeometry y="26" width="240" height="26" as="geometry" />
        </mxCell>
        <mxCell id="C8-yYndTRifIOpUNYZ5G-36" value="- con: Connection" style="text;strokeColor=none;fillColor=none;align=left;verticalAlign=top;spacingLeft=4;spacingRight=4;overflow=hidden;rotatable=0;points=[[0,0.5],[1,0.5]];portConstraint=eastwest;whiteSpace=wrap;html=1;" parent="C8-yYndTRifIOpUNYZ5G-30" vertex="1">
          <mxGeometry y="52" width="240" height="26" as="geometry" />
        </mxCell>
        <mxCell id="-g-TPnmpKA_GPxpFTXeJ-3" value="- stmt: Statement" style="text;strokeColor=none;fillColor=none;align=left;verticalAlign=top;spacingLeft=4;spacingRight=4;overflow=hidden;rotatable=0;points=[[0,0.5],[1,0.5]];portConstraint=eastwest;whiteSpace=wrap;html=1;" parent="C8-yYndTRifIOpUNYZ5G-30" vertex="1">
          <mxGeometry y="78" width="240" height="26" as="geometry" />
        </mxCell>
        <mxCell id="C8-yYndTRifIOpUNYZ5G-37" value="" style="line;strokeWidth=1;fillColor=none;align=left;verticalAlign=middle;spacingTop=-1;spacingLeft=3;spacingRight=3;rotatable=0;labelPosition=right;points=[];portConstraint=eastwest;strokeColor=inherit;" parent="C8-yYndTRifIOpUNYZ5G-30" vertex="1">
          <mxGeometry y="104" width="240" height="8" as="geometry" />
        </mxCell>
        <mxCell id="C8-yYndTRifIOpUNYZ5G-38" value="&lt;div&gt;&lt;span style=&quot;text-align: center; text-wrap: nowrap; background-color: rgb(24, 20, 29);&quot;&gt;&lt;font style=&quot;font-size: 12px;&quot;&gt;- Database()&lt;/font&gt;&lt;/span&gt;&lt;/div&gt;&lt;div&gt;&lt;span style=&quot;text-align: center; text-wrap: nowrap; background-color: rgb(24, 20, 29);&quot;&gt;&lt;font style=&quot;font-size: 12px;&quot;&gt;+ getInstance()&lt;/font&gt;&lt;/span&gt;&lt;/div&gt;&lt;div&gt;&lt;span style=&quot;text-align: center; text-wrap: nowrap; background-color: rgb(24, 20, 29);&quot;&gt;&lt;font style=&quot;font-size: 12px;&quot;&gt;+ closeConnection(): void&lt;/font&gt;&lt;/span&gt;&lt;/div&gt;&lt;div&gt;&lt;span style=&quot;text-align: center; text-wrap: nowrap; background-color: rgb(24, 20, 29);&quot;&gt;&lt;font style=&quot;font-size: 12px;&quot;&gt;+ verifyTransaction(): boolean&lt;/font&gt;&lt;/span&gt;&lt;/div&gt;&lt;div&gt;&lt;span style=&quot;background-color: rgb(24, 20, 29); text-align: center; text-wrap: nowrap;&quot;&gt;+ fetchTransaction(): List&amp;lt;Transaction&amp;gt;&lt;/span&gt;&lt;br&gt;&lt;/div&gt;&lt;div&gt;&lt;div&gt;&lt;font style=&quot;font-size: 12px;&quot;&gt;&lt;span style=&quot;text-wrap: nowrap; text-align: center; background-color: rgb(24, 20, 29);&quot;&gt;+ insertTransaction()&lt;/span&gt;: void&lt;/font&gt;&lt;/div&gt;&lt;div&gt;&lt;span style=&quot;background-color: initial;&quot;&gt;+ updateTransaction(): void&lt;/span&gt;&lt;/div&gt;&lt;div&gt;+ deleteTransaction(): void&lt;/div&gt;&lt;div&gt;&lt;span style=&quot;background-color: rgb(24, 20, 29); text-align: center; text-wrap: nowrap;&quot;&gt;+ verifyUserAccount(): boolean&lt;/span&gt;&lt;/div&gt;&lt;/div&gt;&lt;div&gt;&lt;div&gt;&lt;span style=&quot;background-color: rgb(24, 20, 29); text-align: center; text-wrap: nowrap;&quot;&gt;+ verifyAccountByUsername(): boolean&lt;/span&gt;&lt;/div&gt;&lt;/div&gt;&lt;div&gt;&lt;span style=&quot;text-align: center; text-wrap: nowrap; background-color: rgb(24, 20, 29);&quot;&gt;+ getUserAccount():&amp;nbsp;&lt;/span&gt;&lt;span style=&quot;background-color: rgb(24, 20, 29); text-align: center; text-wrap: nowrap;&quot;&gt;UserAccount&lt;/span&gt;&lt;/div&gt;&lt;div&gt;&lt;span style=&quot;text-align: center; text-wrap: nowrap; background-color: rgb(24, 20, 29);&quot;&gt;+ fetchUserAccount(): List&amp;lt;UserAccount&amp;gt;&lt;/span&gt;&lt;span style=&quot;text-align: center; text-wrap: nowrap; background-color: rgb(24, 20, 29);&quot;&gt;&lt;br&gt;&lt;/span&gt;&lt;/div&gt;&lt;div&gt;&lt;span style=&quot;text-wrap: nowrap; text-align: center; background-color: rgb(24, 20, 29);&quot;&gt;+ insertAccount()&lt;/span&gt;&lt;span style=&quot;background-color: initial;&quot;&gt;: void&lt;/span&gt;&lt;/div&gt;&lt;div&gt;&lt;span style=&quot;background-color: initial;&quot;&gt;+ updateAccount(): void&lt;/span&gt;&lt;/div&gt;&lt;div&gt;&lt;span style=&quot;background-color: initial;&quot;&gt;+ deleteUserAccount(): void&lt;/span&gt;&lt;/div&gt;&lt;div&gt;+ updateAccountPassword(): void&lt;span style=&quot;background-color: initial;&quot;&gt;&lt;br&gt;&lt;/span&gt;&lt;/div&gt;&lt;div&gt;+ insertSession(): void&lt;/div&gt;" style="text;strokeColor=none;fillColor=none;align=left;verticalAlign=top;spacingLeft=4;spacingRight=4;overflow=hidden;rotatable=0;points=[[0,0.5],[1,0.5]];portConstraint=eastwest;whiteSpace=wrap;html=1;" parent="C8-yYndTRifIOpUNYZ5G-30" vertex="1">
          <mxGeometry y="112" width="240" height="258" as="geometry" />
        </mxCell>
        <mxCell id="C8-yYndTRifIOpUNYZ5G-39" value="" style="endArrow=open;endFill=1;endSize=12;html=1;rounded=0;entryX=-0.002;entryY=0.69;entryDx=0;entryDy=0;exitX=0.513;exitY=-0.004;exitDx=0;exitDy=0;exitPerimeter=0;entryPerimeter=0;" parent="1" source="C8-yYndTRifIOpUNYZ5G-10" target="C8-yYndTRifIOpUNYZ5G-36" edge="1">
          <mxGeometry width="160" relative="1" as="geometry">
            <mxPoint x="233" y="176" as="sourcePoint" />
            <mxPoint x="232" y="71" as="targetPoint" />
            <Array as="points">
              <mxPoint x="133" y="80" />
            </Array>
          </mxGeometry>
        </mxCell>
        <mxCell id="C8-yYndTRifIOpUNYZ5G-48" value="DataStorage" style="swimlane;fontStyle=1;align=center;verticalAlign=top;childLayout=stackLayout;horizontal=1;startSize=26;horizontalStack=0;resizeParent=1;resizeParentMax=0;resizeLast=0;collapsible=1;marginBottom=0;whiteSpace=wrap;html=1;" parent="1" vertex="1">
          <mxGeometry x="660" y="455" width="160" height="130" as="geometry" />
        </mxCell>
        <mxCell id="C8-yYndTRifIOpUNYZ5G-49" value="- CSV_FILE_PATH: string" style="text;strokeColor=none;fillColor=none;align=left;verticalAlign=top;spacingLeft=4;spacingRight=4;overflow=hidden;rotatable=0;points=[[0,0.5],[1,0.5]];portConstraint=eastwest;whiteSpace=wrap;html=1;" parent="C8-yYndTRifIOpUNYZ5G-48" vertex="1">
          <mxGeometry y="26" width="160" height="26" as="geometry" />
        </mxCell>
        <mxCell id="C8-yYndTRifIOpUNYZ5G-50" value="" style="line;strokeWidth=1;fillColor=none;align=left;verticalAlign=middle;spacingTop=-1;spacingLeft=3;spacingRight=3;rotatable=0;labelPosition=right;points=[];portConstraint=eastwest;strokeColor=inherit;" parent="C8-yYndTRifIOpUNYZ5G-48" vertex="1">
          <mxGeometry y="52" width="160" height="8" as="geometry" />
        </mxCell>
        <mxCell id="C8-yYndTRifIOpUNYZ5G-51" value="&lt;div&gt;&lt;span style=&quot;background-color: initial;&quot;&gt;+ DataStorage()&lt;/span&gt;&lt;/div&gt;&lt;div&gt;&lt;span style=&quot;background-color: initial;&quot;&gt;+ saveData(): void&lt;/span&gt;&lt;br&gt;&lt;/div&gt;&lt;div&gt;&lt;span style=&quot;background-color: initial;&quot;&gt;+ loadData(filePath): List&amp;lt;Transaction&amp;gt;&lt;br&gt;&lt;/span&gt;&lt;/div&gt;" style="text;strokeColor=none;fillColor=none;align=left;verticalAlign=top;spacingLeft=4;spacingRight=4;overflow=hidden;rotatable=0;points=[[0,0.5],[1,0.5]];portConstraint=eastwest;whiteSpace=wrap;html=1;" parent="C8-yYndTRifIOpUNYZ5G-48" vertex="1">
          <mxGeometry y="60" width="160" height="70" as="geometry" />
        </mxCell>
        <mxCell id="C8-yYndTRifIOpUNYZ5G-52" value="AuthManager" style="swimlane;fontStyle=1;align=center;verticalAlign=top;childLayout=stackLayout;horizontal=1;startSize=26;horizontalStack=0;resizeParent=1;resizeParentMax=0;resizeLast=0;collapsible=1;marginBottom=0;whiteSpace=wrap;html=1;" parent="1" vertex="1">
          <mxGeometry x="120" y="690" width="260" height="476" as="geometry" />
        </mxCell>
        <mxCell id="C8-yYndTRifIOpUNYZ5G-53" value="- userAccountManager: UserAccountManager" style="text;strokeColor=none;fillColor=none;align=left;verticalAlign=top;spacingLeft=4;spacingRight=4;overflow=hidden;rotatable=0;points=[[0,0.5],[1,0.5]];portConstraint=eastwest;whiteSpace=wrap;html=1;" parent="C8-yYndTRifIOpUNYZ5G-52" vertex="1">
          <mxGeometry y="26" width="260" height="26" as="geometry" />
        </mxCell>
        <mxCell id="d_cbGR6xkgUjkzAIAeSA-1" value="&lt;div&gt;&lt;span style=&quot;text-align: center; text-wrap: nowrap; background-color: rgb(24, 20, 29);&quot;&gt;- userAccounts: List&amp;lt;UserAccount&amp;gt;&lt;/span&gt;&lt;/div&gt;" style="text;strokeColor=none;fillColor=none;align=left;verticalAlign=top;spacingLeft=4;spacingRight=4;overflow=hidden;rotatable=0;points=[[0,0.5],[1,0.5]];portConstraint=eastwest;whiteSpace=wrap;html=1;" parent="C8-yYndTRifIOpUNYZ5G-52" vertex="1">
          <mxGeometry y="52" width="260" height="26" as="geometry" />
        </mxCell>
        <mxCell id="tSsszTB-Zw05nYNQHJDE-1" value="- failedLoginAttempts: int" style="text;strokeColor=none;fillColor=none;align=left;verticalAlign=top;spacingLeft=4;spacingRight=4;overflow=hidden;rotatable=0;points=[[0,0.5],[1,0.5]];portConstraint=eastwest;whiteSpace=wrap;html=1;" parent="C8-yYndTRifIOpUNYZ5G-52" vertex="1">
          <mxGeometry y="78" width="260" height="26" as="geometry" />
        </mxCell>
        <mxCell id="tSsszTB-Zw05nYNQHJDE-2" value="- accountId: int" style="text;strokeColor=none;fillColor=none;align=left;verticalAlign=top;spacingLeft=4;spacingRight=4;overflow=hidden;rotatable=0;points=[[0,0.5],[1,0.5]];portConstraint=eastwest;whiteSpace=wrap;html=1;" parent="C8-yYndTRifIOpUNYZ5G-52" vertex="1">
          <mxGeometry y="104" width="260" height="26" as="geometry" />
        </mxCell>
        <mxCell id="tSsszTB-Zw05nYNQHJDE-14" value="- email: string" style="text;strokeColor=none;fillColor=none;align=left;verticalAlign=top;spacingLeft=4;spacingRight=4;overflow=hidden;rotatable=0;points=[[0,0.5],[1,0.5]];portConstraint=eastwest;whiteSpace=wrap;html=1;" parent="C8-yYndTRifIOpUNYZ5G-52" vertex="1">
          <mxGeometry y="130" width="260" height="26" as="geometry" />
        </mxCell>
        <mxCell id="tSsszTB-Zw05nYNQHJDE-16" value="- TOKEN_FILE: string" style="text;strokeColor=none;fillColor=none;align=left;verticalAlign=top;spacingLeft=4;spacingRight=4;overflow=hidden;rotatable=0;points=[[0,0.5],[1,0.5]];portConstraint=eastwest;whiteSpace=wrap;html=1;" parent="C8-yYndTRifIOpUNYZ5G-52" vertex="1">
          <mxGeometry y="156" width="260" height="26" as="geometry" />
        </mxCell>
        <mxCell id="kCls350AfHfz6dgeKU7L-2" value="- SECRET_KEY: string" style="text;strokeColor=none;fillColor=none;align=left;verticalAlign=top;spacingLeft=4;spacingRight=4;overflow=hidden;rotatable=0;points=[[0,0.5],[1,0.5]];portConstraint=eastwest;whiteSpace=wrap;html=1;" parent="C8-yYndTRifIOpUNYZ5G-52" vertex="1">
          <mxGeometry y="182" width="260" height="26" as="geometry" />
        </mxCell>
        <mxCell id="kCls350AfHfz6dgeKU7L-3" value="- SIGNING_KEY: SecretKey" style="text;strokeColor=none;fillColor=none;align=left;verticalAlign=top;spacingLeft=4;spacingRight=4;overflow=hidden;rotatable=0;points=[[0,0.5],[1,0.5]];portConstraint=eastwest;whiteSpace=wrap;html=1;" parent="C8-yYndTRifIOpUNYZ5G-52" vertex="1">
          <mxGeometry y="208" width="260" height="26" as="geometry" />
        </mxCell>
        <mxCell id="x4rZNnx8IfY3lMYyW-9G-1" value="- database: Database" style="text;strokeColor=none;fillColor=none;align=left;verticalAlign=top;spacingLeft=4;spacingRight=4;overflow=hidden;rotatable=0;points=[[0,0.5],[1,0.5]];portConstraint=eastwest;whiteSpace=wrap;html=1;" parent="C8-yYndTRifIOpUNYZ5G-52" vertex="1">
          <mxGeometry y="234" width="260" height="26" as="geometry" />
        </mxCell>
        <mxCell id="C8-yYndTRifIOpUNYZ5G-54" value="" style="line;strokeWidth=1;fillColor=none;align=left;verticalAlign=middle;spacingTop=-1;spacingLeft=3;spacingRight=3;rotatable=0;labelPosition=right;points=[];portConstraint=eastwest;strokeColor=inherit;" parent="C8-yYndTRifIOpUNYZ5G-52" vertex="1">
          <mxGeometry y="260" width="260" height="8" as="geometry" />
        </mxCell>
        <mxCell id="C8-yYndTRifIOpUNYZ5G-55" value="&lt;p style=&quot;margin: 0px 0px 0px 4px;&quot;&gt;&lt;span style=&quot;background-color: initial;&quot;&gt;+ AuthManager()&lt;/span&gt;&lt;/p&gt;&lt;p style=&quot;margin: 0px 0px 0px 4px;&quot;&gt;+ login(username, password): boolean&lt;span style=&quot;background-color: initial;&quot;&gt;&lt;br&gt;&lt;/span&gt;&lt;/p&gt;&lt;p style=&quot;margin: 0px 0px 0px 4px;&quot;&gt;&lt;span style=&quot;background-color: initial;&quot;&gt;+ fetchUserAccounts(): void&lt;/span&gt;&lt;/p&gt;&lt;p style=&quot;margin: 0px 0px 0px 4px;&quot;&gt;&lt;span style=&quot;background-color: initial;&quot;&gt;+ getAccountInfo(): void&lt;/span&gt;&lt;/p&gt;&lt;p style=&quot;margin: 0px 0px 0px 4px;&quot;&gt;&lt;span style=&quot;background-color: initial;&quot;&gt;+ resetPassword(&lt;/span&gt;&lt;span style=&quot;background-color: initial;&quot;&gt;email&lt;/span&gt;&lt;span style=&quot;background-color: initial;&quot;&gt;): boolean&lt;/span&gt;&lt;/p&gt;&lt;p style=&quot;margin: 0px 0px 0px 4px;&quot;&gt;&lt;span style=&quot;background-color: rgb(24, 20, 29); text-wrap: nowrap;&quot;&gt;+ updateAccountPassword(): boolean&lt;/span&gt;&lt;/p&gt;&lt;p style=&quot;margin: 0px 0px 0px 4px;&quot;&gt;&lt;span style=&quot;background-color: initial;&quot;&gt;+ generateSessionToken(): string&lt;/span&gt;&lt;/p&gt;&lt;p style=&quot;margin: 0px 0px 0px 4px;&quot;&gt;&lt;span style=&quot;background-color: initial;&quot;&gt;+ saveSessionToken(): void&lt;/span&gt;&lt;/p&gt;&lt;p style=&quot;margin: 0px 0px 0px 4px;&quot;&gt;&lt;span style=&quot;background-color: initial;&quot;&gt;+ validateSessionToken(): string&lt;/span&gt;&lt;/p&gt;&lt;p style=&quot;margin: 0px 0px 0px 4px;&quot;&gt;&lt;span style=&quot;background-color: initial;&quot;&gt;+ loadSessionToken(): string&lt;/span&gt;&lt;/p&gt;&lt;p style=&quot;margin: 0px 0px 0px 4px;&quot;&gt;&lt;span style=&quot;text-wrap: nowrap; background-color: rgb(24, 20, 29);&quot;&gt;+ terminateSession(): void&lt;/span&gt;&lt;span style=&quot;background-color: initial;&quot;&gt;&lt;br&gt;&lt;/span&gt;&lt;/p&gt;&lt;p style=&quot;margin: 0px 0px 0px 4px;&quot;&gt;&lt;span style=&quot;background-color: rgb(24, 20, 29); text-wrap: nowrap;&quot;&gt;+ logout(): boolean&lt;/span&gt;&lt;/p&gt;&lt;p style=&quot;margin: 0px 0px 0px 4px;&quot;&gt;+ getMethods(&lt;span style=&quot;background-color: initial;&quot;&gt;): void&lt;/span&gt;&lt;/p&gt;&lt;p style=&quot;margin: 0px 0px 0px 4px;&quot;&gt;&lt;span style=&quot;background-color: initial;&quot;&gt;+ setMethods(): attributes&lt;/span&gt;&lt;/p&gt;" style="text;strokeColor=none;fillColor=none;align=left;verticalAlign=top;spacingLeft=4;spacingRight=4;overflow=hidden;rotatable=0;points=[[0,0.5],[1,0.5]];portConstraint=eastwest;whiteSpace=wrap;html=1;" parent="C8-yYndTRifIOpUNYZ5G-52" vertex="1">
          <mxGeometry y="268" width="260" height="208" as="geometry" />
        </mxCell>
        <mxCell id="C8-yYndTRifIOpUNYZ5G-62" value="" style="endArrow=open;endFill=1;endSize=12;html=1;rounded=0;entryX=0.509;entryY=0.979;entryDx=0;entryDy=0;entryPerimeter=0;exitX=0.62;exitY=-0.002;exitDx=0;exitDy=0;exitPerimeter=0;" parent="1" source="kCls350AfHfz6dgeKU7L-4" target="C8-yYndTRifIOpUNYZ5G-51" edge="1">
          <mxGeometry width="160" relative="1" as="geometry">
            <mxPoint x="695" y="700" as="sourcePoint" />
            <mxPoint x="770" y="539" as="targetPoint" />
            <Array as="points">
              <mxPoint x="707" y="610" />
              <mxPoint x="741" y="610" />
            </Array>
          </mxGeometry>
        </mxCell>
        <mxCell id="C8-yYndTRifIOpUNYZ5G-63" value="" style="endArrow=open;endFill=1;endSize=12;html=1;rounded=0;entryX=0.718;entryY=1.013;entryDx=0;entryDy=0;entryPerimeter=0;exitX=0;exitY=0.03;exitDx=0;exitDy=0;exitPerimeter=0;" parent="1" source="kCls350AfHfz6dgeKU7L-4" target="C8-yYndTRifIOpUNYZ5G-13" edge="1">
          <mxGeometry width="160" relative="1" as="geometry">
            <mxPoint x="633" y="710" as="sourcePoint" />
            <mxPoint x="182" y="440" as="targetPoint" />
            <Array as="points">
              <mxPoint x="311" y="660" />
              <mxPoint x="311" y="610" />
              <mxPoint x="182" y="610" />
            </Array>
          </mxGeometry>
        </mxCell>
        <mxCell id="C8-yYndTRifIOpUNYZ5G-81" value="" style="endArrow=open;endFill=1;endSize=12;html=1;rounded=0;exitX=0.5;exitY=0;exitDx=0;exitDy=0;entryX=0.501;entryY=1.031;entryDx=0;entryDy=0;entryPerimeter=0;" parent="1" source="C8-yYndTRifIOpUNYZ5G-52" target="C8-yYndTRifIOpUNYZ5G-13" edge="1">
          <mxGeometry width="160" relative="1" as="geometry">
            <mxPoint x="720" y="779" as="sourcePoint" />
            <mxPoint x="130" y="440" as="targetPoint" />
            <Array as="points">
              <mxPoint x="250" y="650" />
              <mxPoint x="130" y="650" />
            </Array>
          </mxGeometry>
        </mxCell>
        <mxCell id="C8-yYndTRifIOpUNYZ5G-85" value="" style="endArrow=open;endFill=1;endSize=12;html=1;rounded=0;exitX=1.001;exitY=0.377;exitDx=0;exitDy=0;entryX=0.51;entryY=1.021;entryDx=0;entryDy=0;entryPerimeter=0;exitPerimeter=0;" parent="1" source="kCls350AfHfz6dgeKU7L-7" target="z031N11Bq6jgAGXRoNra-25" edge="1">
          <mxGeometry width="160" relative="1" as="geometry">
            <mxPoint x="767" y="908.992" as="sourcePoint" />
            <mxPoint x="980" y="609" as="targetPoint" />
            <Array as="points">
              <mxPoint x="937" y="890" />
            </Array>
          </mxGeometry>
        </mxCell>
        <mxCell id="C8-yYndTRifIOpUNYZ5G-88" value="" style="endArrow=open;endFill=1;endSize=12;html=1;rounded=0;exitX=1.001;exitY=0.377;exitDx=0;exitDy=0;entryX=0.498;entryY=1.035;entryDx=0;entryDy=0;entryPerimeter=0;exitPerimeter=0;" parent="1" source="kCls350AfHfz6dgeKU7L-7" target="_l1rCPPvKuIJKqJEu8NT-102" edge="1">
          <mxGeometry width="160" relative="1" as="geometry">
            <mxPoint x="766.75" y="908.8679999999999" as="sourcePoint" />
            <mxPoint x="910" y="919" as="targetPoint" />
            <Array as="points">
              <mxPoint x="1175" y="890" />
            </Array>
          </mxGeometry>
        </mxCell>
        <mxCell id="C8-yYndTRifIOpUNYZ5G-89" value="" style="endArrow=open;endFill=1;endSize=12;html=1;rounded=0;entryX=0.502;entryY=1.022;entryDx=0;entryDy=0;entryPerimeter=0;exitX=0.999;exitY=0.376;exitDx=0;exitDy=0;exitPerimeter=0;" parent="1" source="kCls350AfHfz6dgeKU7L-7" target="_l1rCPPvKuIJKqJEu8NT-98" edge="1">
          <mxGeometry width="160" relative="1" as="geometry">
            <mxPoint x="820" y="890" as="sourcePoint" />
            <mxPoint x="980" y="609" as="targetPoint" />
            <Array as="points">
              <mxPoint x="1425" y="890" />
            </Array>
          </mxGeometry>
        </mxCell>
        <mxCell id="C8-yYndTRifIOpUNYZ5G-92" value="" style="endArrow=open;endFill=1;endSize=12;html=1;rounded=0;exitX=0.5;exitY=0;exitDx=0;exitDy=0;entryX=1;entryY=0.5;entryDx=0;entryDy=0;" parent="1" source="6kBdxMVxGCVOl0pbByQP-2" target="C8-yYndTRifIOpUNYZ5G-36" edge="1">
          <mxGeometry width="160" relative="1" as="geometry">
            <mxPoint x="1380" y="310" as="sourcePoint" />
            <mxPoint x="860" y="70" as="targetPoint" />
            <Array as="points">
              <mxPoint x="1360" y="75" />
            </Array>
          </mxGeometry>
        </mxCell>
        <mxCell id="C8-yYndTRifIOpUNYZ5G-93" value="" style="endArrow=open;endFill=1;endSize=12;html=1;rounded=0;exitX=0.5;exitY=0;exitDx=0;exitDy=0;entryX=1;entryY=0.5;entryDx=0;entryDy=0;" parent="1" source="z031N11Bq6jgAGXRoNra-19" target="C8-yYndTRifIOpUNYZ5G-38" edge="1">
          <mxGeometry width="160" relative="1" as="geometry">
            <mxPoint x="1020" y="409" as="sourcePoint" />
            <mxPoint x="1180" y="409" as="targetPoint" />
            <Array as="points">
              <mxPoint x="935" y="251" />
            </Array>
          </mxGeometry>
        </mxCell>
        <mxCell id="lvJpADkYUUPoxIRp01Kw-1" value="Use" style="endArrow=open;endSize=12;dashed=1;html=1;rounded=0;exitX=0.25;exitY=0;exitDx=0;exitDy=0;entryX=0.75;entryY=0;entryDx=0;entryDy=0;" parent="1" source="z031N11Bq6jgAGXRoNra-19" target="C8-yYndTRifIOpUNYZ5G-48" edge="1">
          <mxGeometry x="0.3333" y="10" width="160" relative="1" as="geometry">
            <mxPoint x="640" y="539" as="sourcePoint" />
            <mxPoint x="800" y="539" as="targetPoint" />
            <Array as="points">
              <mxPoint x="888" y="420" />
              <mxPoint x="780" y="420" />
            </Array>
            <mxPoint as="offset" />
          </mxGeometry>
        </mxCell>
        <mxCell id="tSsszTB-Zw05nYNQHJDE-13" value="" style="endArrow=open;endFill=1;endSize=12;html=1;rounded=0;exitX=0.5;exitY=0;exitDx=0;exitDy=0;entryX=0.624;entryY=1.013;entryDx=0;entryDy=0;entryPerimeter=0;" parent="1" source="C8-yYndTRifIOpUNYZ5G-48" target="C8-yYndTRifIOpUNYZ5G-38" edge="1">
          <mxGeometry width="160" relative="1" as="geometry">
            <mxPoint x="790" y="439" as="sourcePoint" />
            <mxPoint x="760" y="339" as="targetPoint" />
          </mxGeometry>
        </mxCell>
        <mxCell id="tSsszTB-Zw05nYNQHJDE-25" value="Extends" style="endArrow=block;endSize=16;endFill=0;html=1;rounded=0;exitX=0.5;exitY=0;exitDx=0;exitDy=0;entryX=0.25;entryY=1.025;entryDx=0;entryDy=0;entryPerimeter=0;" parent="1" source="_l1rCPPvKuIJKqJEu8NT-99" target="6kBdxMVxGCVOl0pbByQP-5" edge="1">
          <mxGeometry x="-0.0036" width="160" relative="1" as="geometry">
            <mxPoint x="1080" y="439" as="sourcePoint" />
            <mxPoint x="1304.1" y="482.182" as="targetPoint" />
            <Array as="points">
              <mxPoint x="1175" y="430" />
              <mxPoint x="1305" y="430" />
            </Array>
            <mxPoint as="offset" />
          </mxGeometry>
        </mxCell>
        <mxCell id="tSsszTB-Zw05nYNQHJDE-26" value="Extends" style="endArrow=block;endSize=16;endFill=0;html=1;rounded=0;exitX=0.5;exitY=0;exitDx=0;exitDy=0;entryX=0.4;entryY=1.05;entryDx=0;entryDy=0;entryPerimeter=0;" parent="1" source="_l1rCPPvKuIJKqJEu8NT-95" target="6kBdxMVxGCVOl0pbByQP-5" edge="1">
          <mxGeometry x="-0.2733" width="160" relative="1" as="geometry">
            <mxPoint x="1170" y="529" as="sourcePoint" />
            <mxPoint x="1355.3599999999997" y="483.48199999999997" as="targetPoint" />
            <mxPoint as="offset" />
            <Array as="points">
              <mxPoint x="1425" y="620" />
              <mxPoint x="1340" y="620" />
            </Array>
          </mxGeometry>
        </mxCell>
        <mxCell id="tSsszTB-Zw05nYNQHJDE-28" value="Extends" style="endArrow=block;endSize=16;endFill=0;html=1;rounded=0;entryX=0.667;entryY=1.055;entryDx=0;entryDy=0;entryPerimeter=0;exitX=0.75;exitY=0;exitDx=0;exitDy=0;" parent="1" source="_l1rCPPvKuIJKqJEu8NT-87" target="6kBdxMVxGCVOl0pbByQP-5" edge="1">
          <mxGeometry x="-0.1946" width="160" relative="1" as="geometry">
            <mxPoint x="1170" y="529" as="sourcePoint" />
            <mxPoint x="1449.52" y="484.26200000000006" as="targetPoint" />
            <Array as="points">
              <mxPoint x="1580" y="590" />
              <mxPoint x="1397" y="590" />
            </Array>
            <mxPoint y="-1" as="offset" />
          </mxGeometry>
        </mxCell>
        <mxCell id="KWLAo1MVKhqWBqV_o6MA-2" value="Use" style="endArrow=open;endSize=12;dashed=1;html=1;rounded=0;entryX=0.25;entryY=0;entryDx=0;entryDy=0;exitX=0.712;exitY=0.002;exitDx=0;exitDy=0;exitPerimeter=0;" parent="1" source="z031N11Bq6jgAGXRoNra-11" target="C8-yYndTRifIOpUNYZ5G-48" edge="1">
          <mxGeometry y="-12" width="160" relative="1" as="geometry">
            <mxPoint x="480" y="380" as="sourcePoint" />
            <mxPoint x="640" y="380" as="targetPoint" />
            <mxPoint as="offset" />
            <Array as="points">
              <mxPoint x="540" y="420" />
              <mxPoint x="700" y="420" />
            </Array>
          </mxGeometry>
        </mxCell>
        <mxCell id="c-tCuwEAaoONWHXJXSRM-1" value="" style="endArrow=block;dashed=1;endFill=0;endSize=12;html=1;rounded=0;exitX=0;exitY=0.5;exitDx=0;exitDy=0;entryX=0;entryY=0.5;entryDx=0;entryDy=0;" parent="1" source="kCls350AfHfz6dgeKU7L-7" target="_l1rCPPvKuIJKqJEu8NT-1" edge="1">
          <mxGeometry width="160" relative="1" as="geometry">
            <mxPoint x="530" y="874" as="sourcePoint" />
            <mxPoint x="552.5" y="1072.5" as="targetPoint" />
            <Array as="points">
              <mxPoint x="470" y="908" />
              <mxPoint x="470" y="1015" />
            </Array>
          </mxGeometry>
        </mxCell>
        <mxCell id="c-tCuwEAaoONWHXJXSRM-2" value="implements" style="edgeLabel;html=1;align=center;verticalAlign=middle;resizable=0;points=[];" parent="c-tCuwEAaoONWHXJXSRM-1" vertex="1" connectable="0">
          <mxGeometry x="-0.0814" y="2" relative="1" as="geometry">
            <mxPoint x="-2" y="9" as="offset" />
          </mxGeometry>
        </mxCell>
        <mxCell id="c-tCuwEAaoONWHXJXSRM-3" value="" style="endArrow=open;endFill=1;endSize=12;html=1;rounded=0;entryX=0.25;entryY=0;entryDx=0;entryDy=0;exitX=1.002;exitY=0.376;exitDx=0;exitDy=0;exitPerimeter=0;" parent="1" source="kCls350AfHfz6dgeKU7L-7" target="_l1rCPPvKuIJKqJEu8NT-87" edge="1">
          <mxGeometry width="160" relative="1" as="geometry">
            <mxPoint x="820" y="890" as="sourcePoint" />
            <mxPoint x="1565" y="761" as="targetPoint" />
            <Array as="points">
              <mxPoint x="1440" y="890" />
            </Array>
          </mxGeometry>
        </mxCell>
        <mxCell id="KI5EuivLX7hDx7kTSp1k-1" value="UserAccount" style="swimlane;fontStyle=1;align=center;verticalAlign=top;childLayout=stackLayout;horizontal=1;startSize=26;horizontalStack=0;resizeParent=1;resizeParentMax=0;resizeLast=0;collapsible=1;marginBottom=0;whiteSpace=wrap;html=1;" parent="1" vertex="1">
          <mxGeometry x="310" y="191" width="180" height="270" as="geometry" />
        </mxCell>
        <mxCell id="KI5EuivLX7hDx7kTSp1k-2" value="- firstName: string&amp;nbsp;" style="text;strokeColor=none;fillColor=none;align=left;verticalAlign=top;spacingLeft=4;spacingRight=4;overflow=hidden;rotatable=0;points=[[0,0.5],[1,0.5]];portConstraint=eastwest;whiteSpace=wrap;html=1;" parent="KI5EuivLX7hDx7kTSp1k-1" vertex="1">
          <mxGeometry y="26" width="180" height="26" as="geometry" />
        </mxCell>
        <mxCell id="KI5EuivLX7hDx7kTSp1k-3" value="- lastName: string" style="text;strokeColor=none;fillColor=none;align=left;verticalAlign=top;spacingLeft=4;spacingRight=4;overflow=hidden;rotatable=0;points=[[0,0.5],[1,0.5]];portConstraint=eastwest;whiteSpace=wrap;html=1;" parent="KI5EuivLX7hDx7kTSp1k-1" vertex="1">
          <mxGeometry y="52" width="180" height="26" as="geometry" />
        </mxCell>
        <mxCell id="KI5EuivLX7hDx7kTSp1k-4" value="- username: string" style="text;strokeColor=none;fillColor=none;align=left;verticalAlign=top;spacingLeft=4;spacingRight=4;overflow=hidden;rotatable=0;points=[[0,0.5],[1,0.5]];portConstraint=eastwest;whiteSpace=wrap;html=1;" parent="KI5EuivLX7hDx7kTSp1k-1" vertex="1">
          <mxGeometry y="78" width="180" height="26" as="geometry" />
        </mxCell>
        <mxCell id="KI5EuivLX7hDx7kTSp1k-5" value="- birthday: Date" style="text;strokeColor=none;fillColor=none;align=left;verticalAlign=top;spacingLeft=4;spacingRight=4;overflow=hidden;rotatable=0;points=[[0,0.5],[1,0.5]];portConstraint=eastwest;whiteSpace=wrap;html=1;" parent="KI5EuivLX7hDx7kTSp1k-1" vertex="1">
          <mxGeometry y="104" width="180" height="26" as="geometry" />
        </mxCell>
        <mxCell id="KI5EuivLX7hDx7kTSp1k-6" value="- password: string" style="text;strokeColor=none;fillColor=none;align=left;verticalAlign=top;spacingLeft=4;spacingRight=4;overflow=hidden;rotatable=0;points=[[0,0.5],[1,0.5]];portConstraint=eastwest;whiteSpace=wrap;html=1;" parent="KI5EuivLX7hDx7kTSp1k-1" vertex="1">
          <mxGeometry y="130" width="180" height="26" as="geometry" />
        </mxCell>
        <mxCell id="KI5EuivLX7hDx7kTSp1k-7" value="- email: string" style="text;strokeColor=none;fillColor=none;align=left;verticalAlign=top;spacingLeft=4;spacingRight=4;overflow=hidden;rotatable=0;points=[[0,0.5],[1,0.5]];portConstraint=eastwest;whiteSpace=wrap;html=1;" parent="KI5EuivLX7hDx7kTSp1k-1" vertex="1">
          <mxGeometry y="156" width="180" height="26" as="geometry" />
        </mxCell>
        <mxCell id="2iU1RvOuaXEo3gu4XbIr-8" value="- accountId: int" style="text;strokeColor=none;fillColor=none;align=left;verticalAlign=top;spacingLeft=4;spacingRight=4;overflow=hidden;rotatable=0;points=[[0,0.5],[1,0.5]];portConstraint=eastwest;whiteSpace=wrap;html=1;" parent="KI5EuivLX7hDx7kTSp1k-1" vertex="1">
          <mxGeometry y="182" width="180" height="26" as="geometry" />
        </mxCell>
        <mxCell id="KI5EuivLX7hDx7kTSp1k-9" value="" style="line;strokeWidth=1;fillColor=none;align=left;verticalAlign=middle;spacingTop=-1;spacingLeft=3;spacingRight=3;rotatable=0;labelPosition=right;points=[];portConstraint=eastwest;strokeColor=inherit;" parent="KI5EuivLX7hDx7kTSp1k-1" vertex="1">
          <mxGeometry y="208" width="180" height="8" as="geometry" />
        </mxCell>
        <mxCell id="2iU1RvOuaXEo3gu4XbIr-7" value="&lt;p style=&quot;margin: 0px 0px 0px 4px;&quot;&gt;+ UserAccount()&lt;/p&gt;&lt;p style=&quot;margin: 0px 0px 0px 4px;&quot;&gt;+ getMethods(&lt;span style=&quot;background-color: initial;&quot;&gt;): void&lt;/span&gt;&lt;/p&gt;&lt;p style=&quot;margin: 0px 0px 0px 4px;&quot;&gt;&lt;span style=&quot;background-color: initial;&quot;&gt;+ setMethods(): attributes&lt;/span&gt;&lt;/p&gt;" style="text;strokeColor=none;fillColor=none;align=left;verticalAlign=top;spacingLeft=4;spacingRight=4;overflow=hidden;rotatable=0;points=[[0,0.5],[1,0.5]];portConstraint=eastwest;whiteSpace=wrap;html=1;" parent="KI5EuivLX7hDx7kTSp1k-1" vertex="1">
          <mxGeometry y="216" width="180" height="54" as="geometry" />
        </mxCell>
        <mxCell id="KI5EuivLX7hDx7kTSp1k-12" value="" style="endArrow=diamondThin;endFill=1;endSize=24;html=1;rounded=0;exitX=1;exitY=0.5;exitDx=0;exitDy=0;entryX=0;entryY=0.5;entryDx=0;entryDy=0;" parent="1" source="2iU1RvOuaXEo3gu4XbIr-5" target="KI5EuivLX7hDx7kTSp1k-2" edge="1">
          <mxGeometry width="160" relative="1" as="geometry">
            <mxPoint x="520" y="500" as="sourcePoint" />
            <mxPoint x="680" y="500" as="targetPoint" />
          </mxGeometry>
        </mxCell>
        <mxCell id="KI5EuivLX7hDx7kTSp1k-13" value="&lt;div&gt;&lt;span style=&quot;background-color: initial;&quot;&gt;Transaction&lt;/span&gt;&lt;br&gt;&lt;/div&gt;" style="swimlane;fontStyle=1;align=center;verticalAlign=top;childLayout=stackLayout;horizontal=1;startSize=30;horizontalStack=0;resizeParent=1;resizeParentMax=0;resizeLast=0;collapsible=1;marginBottom=0;whiteSpace=wrap;html=1;" parent="1" vertex="1">
          <mxGeometry x="1050" y="90" width="180" height="310" as="geometry" />
        </mxCell>
        <mxCell id="kCls350AfHfz6dgeKU7L-10" value="- accountId: int" style="text;strokeColor=none;fillColor=none;align=left;verticalAlign=top;spacingLeft=4;spacingRight=4;overflow=hidden;rotatable=0;points=[[0,0.5],[1,0.5]];portConstraint=eastwest;whiteSpace=wrap;html=1;" parent="KI5EuivLX7hDx7kTSp1k-13" vertex="1">
          <mxGeometry y="30" width="180" height="26" as="geometry" />
        </mxCell>
        <mxCell id="KI5EuivLX7hDx7kTSp1k-21" value="- transactionId: string" style="text;strokeColor=none;fillColor=none;align=left;verticalAlign=top;spacingLeft=4;spacingRight=4;overflow=hidden;rotatable=0;points=[[0,0.5],[1,0.5]];portConstraint=eastwest;whiteSpace=wrap;html=1;" parent="KI5EuivLX7hDx7kTSp1k-13" vertex="1">
          <mxGeometry y="56" width="180" height="26" as="geometry" />
        </mxCell>
        <mxCell id="KI5EuivLX7hDx7kTSp1k-14" value="- type: string" style="text;strokeColor=none;fillColor=none;align=left;verticalAlign=top;spacingLeft=4;spacingRight=4;overflow=hidden;rotatable=0;points=[[0,0.5],[1,0.5]];portConstraint=eastwest;whiteSpace=wrap;html=1;" parent="KI5EuivLX7hDx7kTSp1k-13" vertex="1">
          <mxGeometry y="82" width="180" height="26" as="geometry" />
        </mxCell>
        <mxCell id="KI5EuivLX7hDx7kTSp1k-15" value="- amount: double" style="text;strokeColor=none;fillColor=none;align=left;verticalAlign=top;spacingLeft=4;spacingRight=4;overflow=hidden;rotatable=0;points=[[0,0.5],[1,0.5]];portConstraint=eastwest;whiteSpace=wrap;html=1;" parent="KI5EuivLX7hDx7kTSp1k-13" vertex="1">
          <mxGeometry y="108" width="180" height="26" as="geometry" />
        </mxCell>
        <mxCell id="KI5EuivLX7hDx7kTSp1k-17" value="- source: string" style="text;strokeColor=none;fillColor=none;align=left;verticalAlign=top;spacingLeft=4;spacingRight=4;overflow=hidden;rotatable=0;points=[[0,0.5],[1,0.5]];portConstraint=eastwest;whiteSpace=wrap;html=1;" parent="KI5EuivLX7hDx7kTSp1k-13" vertex="1">
          <mxGeometry y="134" width="180" height="26" as="geometry" />
        </mxCell>
        <mxCell id="KI5EuivLX7hDx7kTSp1k-16" value="- category: string" style="text;strokeColor=none;fillColor=none;align=left;verticalAlign=top;spacingLeft=4;spacingRight=4;overflow=hidden;rotatable=0;points=[[0,0.5],[1,0.5]];portConstraint=eastwest;whiteSpace=wrap;html=1;" parent="KI5EuivLX7hDx7kTSp1k-13" vertex="1">
          <mxGeometry y="160" width="180" height="26" as="geometry" />
        </mxCell>
        <mxCell id="kCls350AfHfz6dgeKU7L-11" value="- description: string" style="text;strokeColor=none;fillColor=none;align=left;verticalAlign=top;spacingLeft=4;spacingRight=4;overflow=hidden;rotatable=0;points=[[0,0.5],[1,0.5]];portConstraint=eastwest;whiteSpace=wrap;html=1;" parent="KI5EuivLX7hDx7kTSp1k-13" vertex="1">
          <mxGeometry y="186" width="180" height="26" as="geometry" />
        </mxCell>
        <mxCell id="KI5EuivLX7hDx7kTSp1k-18" value="- date: Date" style="text;strokeColor=none;fillColor=none;align=left;verticalAlign=top;spacingLeft=4;spacingRight=4;overflow=hidden;rotatable=0;points=[[0,0.5],[1,0.5]];portConstraint=eastwest;whiteSpace=wrap;html=1;" parent="KI5EuivLX7hDx7kTSp1k-13" vertex="1">
          <mxGeometry y="212" width="180" height="26" as="geometry" />
        </mxCell>
        <mxCell id="kCls350AfHfz6dgeKU7L-12" value="- system_date: Timestamp" style="text;strokeColor=none;fillColor=none;align=left;verticalAlign=top;spacingLeft=4;spacingRight=4;overflow=hidden;rotatable=0;points=[[0,0.5],[1,0.5]];portConstraint=eastwest;whiteSpace=wrap;html=1;" parent="KI5EuivLX7hDx7kTSp1k-13" vertex="1">
          <mxGeometry y="238" width="180" height="26" as="geometry" />
        </mxCell>
        <mxCell id="KI5EuivLX7hDx7kTSp1k-23" value="" style="line;strokeWidth=1;fillColor=none;align=left;verticalAlign=middle;spacingTop=-1;spacingLeft=3;spacingRight=3;rotatable=0;labelPosition=right;points=[];portConstraint=eastwest;strokeColor=inherit;" parent="KI5EuivLX7hDx7kTSp1k-13" vertex="1">
          <mxGeometry y="264" width="180" height="8" as="geometry" />
        </mxCell>
        <mxCell id="KI5EuivLX7hDx7kTSp1k-24" value="&lt;p style=&quot;margin: 0px 0px 0px 4px;&quot;&gt;+ getMethods(&lt;span style=&quot;background-color: initial;&quot;&gt;): void&lt;/span&gt;&lt;/p&gt;&lt;p style=&quot;margin: 0px 0px 0px 4px;&quot;&gt;&lt;span style=&quot;background-color: initial;&quot;&gt;+ setMethods(): attributes&lt;/span&gt;&lt;/p&gt;" style="text;strokeColor=none;fillColor=none;align=left;verticalAlign=top;spacingLeft=4;spacingRight=4;overflow=hidden;rotatable=0;points=[[0,0.5],[1,0.5]];portConstraint=eastwest;whiteSpace=wrap;html=1;" parent="KI5EuivLX7hDx7kTSp1k-13" vertex="1">
          <mxGeometry y="272" width="180" height="38" as="geometry" />
        </mxCell>
        <mxCell id="2iU1RvOuaXEo3gu4XbIr-1" value="" style="endArrow=diamondThin;endFill=1;endSize=24;html=1;rounded=0;entryX=0;entryY=0.5;entryDx=0;entryDy=0;exitX=0.75;exitY=0;exitDx=0;exitDy=0;" parent="1" source="z031N11Bq6jgAGXRoNra-19" target="KI5EuivLX7hDx7kTSp1k-14" edge="1">
          <mxGeometry width="160" relative="1" as="geometry">
            <mxPoint x="770" y="470" as="sourcePoint" />
            <mxPoint x="930" y="470" as="targetPoint" />
            <Array as="points">
              <mxPoint x="983" y="185" />
            </Array>
          </mxGeometry>
        </mxCell>
        <mxCell id="kCls350AfHfz6dgeKU7L-4" value="Management" style="swimlane;fontStyle=1;align=center;verticalAlign=top;childLayout=stackLayout;horizontal=1;startSize=26;horizontalStack=0;resizeParent=1;resizeParentMax=0;resizeLast=0;collapsible=1;marginBottom=0;whiteSpace=wrap;html=1;" parent="1" vertex="1">
          <mxGeometry x="540" y="650" width="270" height="330" as="geometry" />
        </mxCell>
        <mxCell id="kCls350AfHfz6dgeKU7L-5" value="- userAccountManager: UserAccountManager" style="text;strokeColor=none;fillColor=none;align=left;verticalAlign=top;spacingLeft=4;spacingRight=4;overflow=hidden;rotatable=0;points=[[0,0.5],[1,0.5]];portConstraint=eastwest;whiteSpace=wrap;html=1;" parent="kCls350AfHfz6dgeKU7L-4" vertex="1">
          <mxGeometry y="26" width="270" height="26" as="geometry" />
        </mxCell>
        <mxCell id="kCls350AfHfz6dgeKU7L-8" value="- authManager: AuthManager" style="text;strokeColor=none;fillColor=none;align=left;verticalAlign=top;spacingLeft=4;spacingRight=4;overflow=hidden;rotatable=0;points=[[0,0.5],[1,0.5]];portConstraint=eastwest;whiteSpace=wrap;html=1;" parent="kCls350AfHfz6dgeKU7L-4" vertex="1">
          <mxGeometry y="52" width="270" height="22" as="geometry" />
        </mxCell>
        <mxCell id="8OjkZKdfy6l_wUitJZlM-1" value="- transactionManager: TransactionManager" style="text;strokeColor=none;fillColor=none;align=left;verticalAlign=top;spacingLeft=4;spacingRight=4;overflow=hidden;rotatable=0;points=[[0,0.5],[1,0.5]];portConstraint=eastwest;whiteSpace=wrap;html=1;" parent="kCls350AfHfz6dgeKU7L-4" vertex="1">
          <mxGeometry y="74" width="270" height="26" as="geometry" />
        </mxCell>
        <mxCell id="xt9oRM005BmcmPgpxyZx-12" value="- transactionHistory: TransactionHistory" style="text;strokeColor=none;fillColor=none;align=left;verticalAlign=top;spacingLeft=4;spacingRight=4;overflow=hidden;rotatable=0;points=[[0,0.5],[1,0.5]];portConstraint=eastwest;whiteSpace=wrap;html=1;" parent="kCls350AfHfz6dgeKU7L-4" vertex="1">
          <mxGeometry y="100" width="270" height="26" as="geometry" />
        </mxCell>
        <mxCell id="xt9oRM005BmcmPgpxyZx-1" value="- expenseSummary: ExpenseSummary" style="text;strokeColor=none;fillColor=none;align=left;verticalAlign=top;spacingLeft=4;spacingRight=4;overflow=hidden;rotatable=0;points=[[0,0.5],[1,0.5]];portConstraint=eastwest;whiteSpace=wrap;html=1;" parent="kCls350AfHfz6dgeKU7L-4" vertex="1">
          <mxGeometry y="126" width="270" height="26" as="geometry" />
        </mxCell>
        <mxCell id="xt9oRM005BmcmPgpxyZx-2" value="- reportSummary: ReportSummary" style="text;strokeColor=none;fillColor=none;align=left;verticalAlign=top;spacingLeft=4;spacingRight=4;overflow=hidden;rotatable=0;points=[[0,0.5],[1,0.5]];portConstraint=eastwest;whiteSpace=wrap;html=1;" parent="kCls350AfHfz6dgeKU7L-4" vertex="1">
          <mxGeometry y="152" width="270" height="26" as="geometry" />
        </mxCell>
        <mxCell id="kCls350AfHfz6dgeKU7L-6" value="" style="line;strokeWidth=1;fillColor=none;align=left;verticalAlign=middle;spacingTop=-1;spacingLeft=3;spacingRight=3;rotatable=0;labelPosition=right;points=[];portConstraint=eastwest;strokeColor=inherit;" parent="kCls350AfHfz6dgeKU7L-4" vertex="1">
          <mxGeometry y="178" width="270" height="8" as="geometry" />
        </mxCell>
        <mxCell id="kCls350AfHfz6dgeKU7L-7" value="&lt;p style=&quot;margin: 0px 0px 0px 4px;&quot;&gt;+ Management()&lt;/p&gt;&lt;p style=&quot;margin: 0px 0px 0px 4px;&quot;&gt;+ userAccountManager(): void&lt;/p&gt;&lt;p style=&quot;margin: 0px 0px 0px 4px;&quot;&gt;+ authManager(): void&lt;/p&gt;&lt;p style=&quot;margin: 0px 0px 0px 4px;&quot;&gt;+ transactionManager(): void&lt;/p&gt;&lt;p style=&quot;margin: 0px 0px 0px 4px;&quot;&gt;&lt;span style=&quot;background-color: initial;&quot;&gt;+ reportSummary(): void&lt;/span&gt;&lt;/p&gt;&lt;p style=&quot;margin: 0px 0px 0px 4px;&quot;&gt;&lt;span style=&quot;background-color: initial;&quot;&gt;+ settings(): void&lt;/span&gt;&lt;/p&gt;&lt;p style=&quot;margin: 0px 0px 0px 4px;&quot;&gt;&lt;span style=&quot;background-color: initial;&quot;&gt;+ dataStorage(): void&lt;/span&gt;&lt;/p&gt;&lt;p style=&quot;margin: 0px 0px 0px 4px;&quot;&gt;&lt;span style=&quot;background-color: initial;&quot;&gt;+ run(): void&lt;/span&gt;&lt;/p&gt;&lt;p style=&quot;margin: 0px 0px 0px 4px;&quot;&gt;&lt;span style=&quot;background-color: initial;&quot;&gt;+ expenseTracker(): void&lt;/span&gt;&lt;/p&gt;" style="text;strokeColor=none;fillColor=none;align=left;verticalAlign=top;spacingLeft=4;spacingRight=4;overflow=hidden;rotatable=0;points=[[0,0.5],[1,0.5]];portConstraint=eastwest;whiteSpace=wrap;html=1;" parent="kCls350AfHfz6dgeKU7L-4" vertex="1">
          <mxGeometry y="186" width="270" height="144" as="geometry" />
        </mxCell>
        <mxCell id="6kBdxMVxGCVOl0pbByQP-2" value="&lt;i style=&quot;font-weight: 400;&quot;&gt;&lt;b&gt;&amp;lt;abstract&amp;gt;&lt;/b&gt;&lt;/i&gt;&lt;div style=&quot;font-weight: 400;&quot;&gt;&lt;i&gt;&lt;b&gt;TransactionList&lt;/b&gt;&lt;/i&gt;&lt;/div&gt;" style="swimlane;fontStyle=1;align=center;verticalAlign=top;childLayout=stackLayout;horizontal=1;startSize=40;horizontalStack=0;resizeParent=1;resizeParentMax=0;resizeLast=0;collapsible=1;marginBottom=0;whiteSpace=wrap;html=1;" parent="1" vertex="1">
          <mxGeometry x="1250" y="228" width="220" height="166" as="geometry" />
        </mxCell>
        <mxCell id="6kBdxMVxGCVOl0pbByQP-6" value="# totalTransactions: List&amp;lt;Transaction&amp;gt;" style="text;strokeColor=none;fillColor=none;align=left;verticalAlign=top;spacingLeft=4;spacingRight=4;overflow=hidden;rotatable=0;points=[[0,0.5],[1,0.5]];portConstraint=eastwest;whiteSpace=wrap;html=1;" parent="6kBdxMVxGCVOl0pbByQP-2" vertex="1">
          <mxGeometry y="40" width="220" height="26" as="geometry" />
        </mxCell>
        <mxCell id="6kBdxMVxGCVOl0pbByQP-7" value="# database: Database" style="text;strokeColor=none;fillColor=none;align=left;verticalAlign=top;spacingLeft=4;spacingRight=4;overflow=hidden;rotatable=0;points=[[0,0.5],[1,0.5]];portConstraint=eastwest;whiteSpace=wrap;html=1;" parent="6kBdxMVxGCVOl0pbByQP-2" vertex="1">
          <mxGeometry y="66" width="220" height="26" as="geometry" />
        </mxCell>
        <mxCell id="a6m1evGmi5l3W6-6Lu3d-2" value="# authManager: AuthManager" style="text;strokeColor=none;fillColor=none;align=left;verticalAlign=top;spacingLeft=4;spacingRight=4;overflow=hidden;rotatable=0;points=[[0,0.5],[1,0.5]];portConstraint=eastwest;whiteSpace=wrap;html=1;" parent="6kBdxMVxGCVOl0pbByQP-2" vertex="1">
          <mxGeometry y="92" width="220" height="26" as="geometry" />
        </mxCell>
        <mxCell id="6kBdxMVxGCVOl0pbByQP-4" value="" style="line;strokeWidth=1;fillColor=none;align=left;verticalAlign=middle;spacingTop=-1;spacingLeft=3;spacingRight=3;rotatable=0;labelPosition=right;points=[];portConstraint=eastwest;strokeColor=inherit;" parent="6kBdxMVxGCVOl0pbByQP-2" vertex="1">
          <mxGeometry y="118" width="220" height="8" as="geometry" />
        </mxCell>
        <mxCell id="6kBdxMVxGCVOl0pbByQP-5" value="&lt;p style=&quot;margin: 0px 0px 0px 4px;&quot;&gt;+ TransactionList()&lt;/p&gt;&lt;p style=&quot;margin: 0px 0px 0px 4px;&quot;&gt;&lt;span style=&quot;background-color: initial;&quot;&gt;+ fetchTransactions(): void&lt;/span&gt;&lt;/p&gt;" style="text;strokeColor=none;fillColor=none;align=left;verticalAlign=top;spacingLeft=4;spacingRight=4;overflow=hidden;rotatable=0;points=[[0,0.5],[1,0.5]];portConstraint=eastwest;whiteSpace=wrap;html=1;" parent="6kBdxMVxGCVOl0pbByQP-2" vertex="1">
          <mxGeometry y="126" width="220" height="40" as="geometry" />
        </mxCell>
        <mxCell id="2" value="" style="endArrow=open;endFill=1;endSize=12;html=1;exitX=0;exitY=0.077;exitDx=0;exitDy=0;entryX=0.838;entryY=1.006;entryDx=0;entryDy=0;entryPerimeter=0;exitPerimeter=0;" parent="1" source="z031N11Bq6jgAGXRoNra-12" target="C8-yYndTRifIOpUNYZ5G-13" edge="1">
          <mxGeometry width="160" relative="1" as="geometry">
            <mxPoint x="470" y="520" as="sourcePoint" />
            <mxPoint x="630" y="520" as="targetPoint" />
            <Array as="points">
              <mxPoint x="211" y="498" />
            </Array>
          </mxGeometry>
        </mxCell>
        <mxCell id="3" value="" style="endArrow=open;endFill=1;endSize=12;html=1;exitX=0;exitY=0.5;exitDx=0;exitDy=0;entryX=0.6;entryY=-0.002;entryDx=0;entryDy=0;entryPerimeter=0;" parent="1" source="tSsszTB-Zw05nYNQHJDE-9" target="C8-yYndTRifIOpUNYZ5G-52" edge="1">
          <mxGeometry width="160" relative="1" as="geometry">
            <mxPoint x="470" y="520" as="sourcePoint" />
            <mxPoint x="630" y="520" as="targetPoint" />
            <Array as="points">
              <mxPoint x="276" y="535" />
            </Array>
          </mxGeometry>
        </mxCell>
        <mxCell id="ZzsYJDnBeN5N1ZbwkRlU-3" value="" style="endArrow=open;endFill=1;endSize=12;html=1;rounded=0;entryX=1.002;entryY=-0.06;entryDx=0;entryDy=0;exitX=0;exitY=0.236;exitDx=0;exitDy=0;exitPerimeter=0;entryPerimeter=0;" edge="1" parent="1" source="kCls350AfHfz6dgeKU7L-7" target="kCls350AfHfz6dgeKU7L-2">
          <mxGeometry width="160" relative="1" as="geometry">
            <mxPoint x="640" y="720" as="sourcePoint" />
            <mxPoint x="800" y="720" as="targetPoint" />
          </mxGeometry>
        </mxCell>
      </root>
    </mxGraphModel>
  </diagram>
</mxfile>
